<svg id="Layer_1" data-name="Layer 1" xmlns="http://www.w3.org/2000/svg" viewBox="0 0 7820 1692.3"><defs><style>.cls-1{fill:#1f19c3;}</style></defs><path class="cls-1" d="M195.8,1065.27c0,282,125.87,456.85,321.67,456.85,202.8,0,333.34-179.47,333.34-456.85S720.27,610.72,517.47,610.72c-195.8,0-321.67,174.84-321.67,454.55m14-426.59C275.05,519.8,412.59,445.22,571.09,445.22c300.72,0,494.18,242.42,494.18,620.05s-193.46,622.35-496.51,622.35c-158.5,0-298.38-76.92-361.3-200.46H202.8v172.5H0V0H205.13V638.68Z"/><rect class="cls-1" x="1205.04" width="205.13" height="1659.66"/><path class="cls-1" d="M1601.26,1198.13V475.53h205.13V1181.8c0,247.09,102.54,335.67,272.71,335.67,165.5,0,307.71-125.88,307.71-363.63V475.53h205.13V1659.64H2393.81V1503.47h-4.66c-72.29,109.58-202.8,181.84-361.3,181.84-270.42,0-426.59-163.17-426.59-487.18"/><path class="cls-1" d="M2915.84,953.37h680.67c-21-230.75-156.21-352-338-352-188.8,0-321.68,125.84-342.67,352m662,352h209.79c-39.62,207.46-219.13,387-522.13,387-349.67,0-557.14-254.08-557.14-641,0-349.63,205.13-608.35,550.14-608.35,268,0,456.88,158.51,517.47,412.56,16.33,67.62,23.33,151.5,23.33,254.08H2913.5c9.33,291.38,158.51,424.22,352,424.22,172.46,0,284.38-95.54,312.34-228.42"/><polygon class="cls-1" points="3939.09 0 3939.09 1659.66 4144.21 1659.66 4144.21 1067.57 4148.88 1067.57 4673.31 1659.66 4943.73 1659.66 4349.34 1011.65 4880.81 475.55 4626.73 475.55 4148.88 967.35 4144.21 967.35 4144.21 0 3939.09 0"/><path class="cls-1" d="M5032.25,953.37h680.67c-21-230.75-156.2-352-338-352-188.8,0-321.68,125.84-342.67,352m662,352h209.79c-39.62,207.46-219.12,387-522.13,387-349.67,0-557.14-254.08-557.14-641,0-349.63,205.13-608.35,550.14-608.35,268.05,0,456.88,158.51,517.47,412.56,16.33,67.62,23.33,151.5,23.33,254.08H5029.91c9.34,291.38,158.51,424.22,352,424.22,172.46,0,284.38-95.54,312.34-228.42"/><path class="cls-1" d="M6691.84,473.18V657.31c-25.66-2.33-56-7-81.58-7-223.8,0-349.64,144.51-349.64,405.59v603.72H6055.49V475.52h195.8V657.31H6256c79.25-130.5,198.13-193.46,349.63-193.46,25.63,0,60.59,2.33,86.25,9.33"/><path class="cls-1" d="M7820,937.05v722.6H7614.87V953.34c0-247.05-102.55-335.63-272.71-335.63-167.84,0-307.72,125.87-307.72,363.63v678.31H6829.31V475.53h198.13V631.7h4.67c72.29-109.54,200.5-181.83,359-181.83C7661.5,449.87,7820,613,7820,937.05"/></svg>